<svg xmlns="http://www.w3.org/2000/svg" xmlns:xlink="http://www.w3.org/1999/xlink" width="64" zoomAndPan="magnify" viewBox="0 0 48 48" height="64" preserveAspectRatio="xMidYMid meet" version="1.0"><defs><g/><clipPath id="b26440e399"><path d="M 5.191406 15.023438 L 30.171875 15.023438 L 30.171875 40 L 5.191406 40 Z M 5.191406 15.023438 " clip-rule="nonzero"/></clipPath><clipPath id="62673b595a"><path d="M 15 15.023438 L 21 15.023438 L 21 19 L 15 19 Z M 15 15.023438 " clip-rule="nonzero"/></clipPath><clipPath id="2bbb8f3af9"><path d="M 5.191406 25 L 9 25 L 9 30 L 5.191406 30 Z M 5.191406 25 " clip-rule="nonzero"/></clipPath><clipPath id="829ce9257f"><path d="M 17.386719 1.667969 L 43 1.667969 L 43 45.015625 L 17.386719 45.015625 Z M 17.386719 1.667969 " clip-rule="nonzero"/></clipPath><clipPath id="6228bfc08d"><rect x="0" width="27" y="0" height="40"/></clipPath></defs><path fill="#e5a92e" d="M 17.640625 29.84375 C 16.332031 29.84375 15.269531 28.777344 15.269531 27.46875 C 15.269531 26.164062 16.332031 25.097656 17.640625 25.097656 C 18.945312 25.097656 20.011719 26.164062 20.011719 27.46875 C 20.011719 28.777344 18.945312 29.84375 17.640625 29.84375 Z M 17.640625 26.285156 C 16.984375 26.285156 16.453125 26.816406 16.453125 27.46875 C 16.453125 28.125 16.984375 28.65625 17.640625 28.65625 C 18.292969 28.65625 18.824219 28.125 18.824219 27.46875 C 18.824219 26.816406 18.292969 26.285156 17.640625 26.285156 Z M 17.640625 26.285156 " fill-opacity="1" fill-rule="nonzero"/><path fill="#e5a92e" d="M 12.898438 25.097656 C 11.589844 25.097656 10.523438 24.035156 10.523438 22.726562 C 10.523438 21.417969 11.589844 20.355469 12.898438 20.355469 C 14.203125 20.355469 15.269531 21.417969 15.269531 22.726562 C 15.269531 24.035156 14.203125 25.097656 12.898438 25.097656 Z M 12.898438 21.542969 C 12.242188 21.542969 11.710938 22.074219 11.710938 22.726562 C 11.710938 23.382812 12.242188 23.914062 12.898438 23.914062 C 13.550781 23.914062 14.082031 23.382812 14.082031 22.726562 C 14.082031 22.074219 13.550781 21.542969 12.898438 21.542969 Z M 12.898438 21.542969 " fill-opacity="1" fill-rule="nonzero"/><path fill="#e5a92e" d="M 22.382812 25.097656 C 21.074219 25.097656 20.011719 24.035156 20.011719 22.726562 C 20.011719 21.417969 21.074219 20.355469 22.382812 20.355469 C 23.691406 20.355469 24.753906 21.417969 24.753906 22.726562 C 24.753906 24.035156 23.691406 25.097656 22.382812 25.097656 Z M 22.382812 21.542969 C 21.730469 21.542969 21.195312 22.074219 21.195312 22.726562 C 21.195312 23.382812 21.730469 23.914062 22.382812 23.914062 C 23.035156 23.914062 23.566406 23.382812 23.566406 22.726562 C 23.566406 22.074219 23.035156 21.542969 22.382812 21.542969 Z M 22.382812 21.542969 " fill-opacity="1" fill-rule="nonzero"/><path fill="#e5a92e" d="M 22.382812 34.585938 C 21.074219 34.585938 20.011719 33.519531 20.011719 32.214844 C 20.011719 30.90625 21.074219 29.839844 22.382812 29.839844 C 23.691406 29.839844 24.753906 30.90625 24.753906 32.214844 C 24.753906 33.519531 23.691406 34.585938 22.382812 34.585938 Z M 22.382812 31.027344 C 21.730469 31.027344 21.195312 31.558594 21.195312 32.214844 C 21.195312 32.867188 21.730469 33.398438 22.382812 33.398438 C 23.035156 33.398438 23.566406 32.867188 23.566406 32.214844 C 23.566406 31.558594 23.035156 31.027344 22.382812 31.027344 Z M 22.382812 31.027344 " fill-opacity="1" fill-rule="nonzero"/><path fill="#e5a92e" d="M 12.898438 34.585938 C 11.589844 34.585938 10.523438 33.519531 10.523438 32.214844 C 10.523438 30.90625 11.589844 29.839844 12.898438 29.839844 C 14.203125 29.839844 15.269531 30.90625 15.269531 32.214844 C 15.269531 33.519531 14.203125 34.585938 12.898438 34.585938 Z M 12.898438 31.027344 C 12.242188 31.027344 11.710938 31.558594 11.710938 32.214844 C 11.710938 32.867188 12.242188 33.398438 12.898438 33.398438 C 13.550781 33.398438 14.082031 32.867188 14.082031 32.214844 C 14.082031 31.558594 13.550781 31.027344 12.898438 31.027344 Z M 12.898438 31.027344 " fill-opacity="1" fill-rule="nonzero"/><g clip-path="url(#b26440e399)"><path fill="#e5a92e" d="M 17.640625 39.921875 C 10.773438 39.921875 5.191406 34.335938 5.191406 27.472656 C 5.191406 20.605469 10.773438 15.019531 17.640625 15.019531 C 24.503906 15.019531 30.089844 20.605469 30.089844 27.46875 C 30.089844 34.335938 24.503906 39.921875 17.640625 39.921875 Z M 17.640625 16.207031 C 11.429688 16.207031 6.375 21.261719 6.375 27.472656 C 6.375 33.683594 11.429688 38.734375 17.640625 38.734375 C 23.851562 38.734375 28.902344 33.683594 28.902344 27.472656 C 28.902344 21.261719 23.851562 16.207031 17.640625 16.207031 Z M 17.640625 16.207031 " fill-opacity="1" fill-rule="nonzero"/></g><path fill="#e5a92e" d="M 19.925781 39.359375 L 18.78125 39.046875 C 18.8125 38.945312 18.824219 38.839844 18.824219 38.734375 C 18.824219 38.082031 18.292969 37.550781 17.640625 37.550781 C 16.984375 37.550781 16.453125 38.082031 16.453125 38.734375 C 16.453125 38.84375 16.46875 38.949219 16.496094 39.046875 L 15.351562 39.359375 C 15.296875 39.15625 15.269531 38.949219 15.269531 38.734375 C 15.269531 37.425781 16.332031 36.363281 17.640625 36.363281 C 18.949219 36.363281 20.011719 37.425781 20.011719 38.734375 C 20.011719 38.945312 19.984375 39.15625 19.925781 39.359375 Z M 19.925781 39.359375 " fill-opacity="1" fill-rule="nonzero"/><g clip-path="url(#62673b595a)"><path fill="#e5a92e" d="M 17.640625 18.578125 C 16.332031 18.578125 15.269531 17.515625 15.269531 16.207031 C 15.269531 15.992188 15.296875 15.78125 15.351562 15.582031 L 16.496094 15.894531 C 16.46875 15.992188 16.453125 16.097656 16.453125 16.207031 C 16.453125 16.859375 16.984375 17.390625 17.640625 17.390625 C 18.292969 17.390625 18.824219 16.859375 18.824219 16.207031 C 18.824219 16.101562 18.808594 15.996094 18.78125 15.894531 L 19.925781 15.582031 C 19.980469 15.785156 20.011719 15.996094 20.011719 16.207031 C 20.011719 17.515625 18.945312 18.578125 17.640625 18.578125 Z M 17.640625 18.578125 " fill-opacity="1" fill-rule="nonzero"/></g><path fill="#e5a92e" d="M 28.902344 29.84375 C 27.597656 29.84375 26.53125 28.777344 26.53125 27.46875 C 26.53125 26.164062 27.597656 25.097656 28.902344 25.097656 C 29.113281 25.097656 29.324219 25.128906 29.53125 25.183594 L 29.21875 26.328125 C 29.113281 26.300781 29.007812 26.285156 28.90625 26.285156 C 28.25 26.285156 27.71875 26.816406 27.71875 27.46875 C 27.71875 28.125 28.25 28.65625 28.90625 28.65625 C 29.011719 28.65625 29.117188 28.640625 29.21875 28.613281 L 29.527344 29.757812 C 29.324219 29.8125 29.113281 29.839844 28.90625 29.839844 Z M 28.902344 29.84375 " fill-opacity="1" fill-rule="nonzero"/><g clip-path="url(#2bbb8f3af9)"><path fill="#e5a92e" d="M 6.375 29.84375 C 6.164062 29.84375 5.953125 29.8125 5.75 29.757812 L 6.0625 28.613281 C 6.164062 28.640625 6.269531 28.65625 6.375 28.65625 C 7.03125 28.65625 7.5625 28.125 7.5625 27.472656 C 7.5625 26.710938 6.804688 26.125 6.0625 26.328125 L 5.75 25.183594 C 5.953125 25.128906 6.164062 25.097656 6.375 25.097656 C 7.683594 25.097656 8.746094 26.164062 8.746094 27.472656 C 8.746094 28.777344 7.683594 29.84375 6.375 29.84375 Z M 6.375 29.84375 " fill-opacity="1" fill-rule="nonzero"/></g><g clip-path="url(#829ce9257f)"><path fill="#213448" d="M 42.773438 27.226562 C 42.773438 28.894531 42.613281 30.546875 42.289062 32.179688 C 41.964844 33.816406 41.480469 35.402344 40.84375 36.941406 C 40.207031 38.484375 39.421875 39.945312 38.496094 41.332031 C 37.570312 42.714844 36.515625 43.996094 35.335938 45.175781 L 28.554688 38.390625 C 30.035156 36.914062 31.179688 35.207031 31.980469 33.269531 C 32.78125 31.335938 33.179688 29.320312 33.179688 27.226562 C 33.179688 26.710938 33.152344 26.195312 33.101562 25.679688 C 33.050781 25.164062 32.976562 24.652344 32.875 24.144531 C 32.773438 23.640625 32.648438 23.136719 32.5 22.644531 C 32.347656 22.148438 32.175781 21.660156 31.976562 21.183594 C 31.777344 20.707031 31.558594 20.238281 31.3125 19.78125 C 31.070312 19.328125 30.804688 18.882812 30.515625 18.453125 C 30.230469 18.023438 29.921875 17.609375 29.59375 17.207031 C 29.265625 16.808594 28.917969 16.425781 28.554688 16.058594 C 28.1875 15.695312 27.804688 15.347656 27.40625 15.019531 C 27.003906 14.691406 26.589844 14.382812 26.160156 14.097656 C 25.730469 13.808594 25.285156 13.542969 24.832031 13.300781 C 24.375 13.054688 23.90625 12.835938 23.429688 12.636719 C 22.953125 12.4375 22.464844 12.265625 21.972656 12.113281 C 21.476562 11.964844 20.976562 11.839844 20.46875 11.738281 C 19.960938 11.636719 19.449219 11.5625 18.933594 11.511719 C 18.417969 11.460938 17.902344 11.433594 17.386719 11.433594 L 17.386719 1.839844 C 18.21875 1.839844 19.046875 1.882812 19.875 1.964844 C 20.703125 2.046875 21.523438 2.167969 22.339844 2.328125 C 23.15625 2.492188 23.960938 2.695312 24.753906 2.933594 C 25.550781 3.175781 26.332031 3.457031 27.101562 3.773438 C 27.867188 4.09375 28.621094 4.449219 29.351562 4.839844 C 30.085938 5.230469 30.796875 5.660156 31.488281 6.121094 C 32.179688 6.582031 32.847656 7.078125 33.492188 7.605469 C 34.132812 8.132812 34.75 8.691406 35.335938 9.277344 C 35.925781 9.867188 36.480469 10.480469 37.007812 11.125 C 37.535156 11.765625 38.03125 12.433594 38.492188 13.125 C 38.953125 13.816406 39.382812 14.527344 39.773438 15.261719 C 40.164062 15.992188 40.519531 16.746094 40.839844 17.511719 C 41.15625 18.28125 41.4375 19.0625 41.679688 19.859375 C 41.917969 20.652344 42.121094 21.460938 42.285156 22.273438 C 42.445312 23.089844 42.566406 23.910156 42.648438 24.738281 C 42.730469 25.566406 42.773438 26.394531 42.773438 27.226562 Z M 42.773438 27.226562 " fill-opacity="1" fill-rule="nonzero"/></g><g transform="matrix(1, 0, 0, 1, 20, 1)"><g clip-path="url(#6228bfc08d)"><g fill="#e5a92e" fill-opacity="1"><g transform="translate(2.435678, 8.283538)"><g><path d="M 2.796875 -2.53125 C 3.890625 -2.144531 4.25 -1.429688 3.875 -0.390625 C 3.507812 0.648438 2.78125 0.976562 1.6875 0.59375 L 0.34375 0.125 L 1.453125 -3 Z M 1.609375 -0.28125 L 1.9375 -0.15625 C 2.351562 -0.0078125 2.640625 -0.160156 2.796875 -0.609375 L 2.890625 -0.875 C 3.054688 -1.332031 2.929688 -1.632812 2.515625 -1.78125 L 2.1875 -1.90625 Z M 1.609375 -0.28125 "/></g></g></g><g fill="#e5a92e" fill-opacity="1"><g transform="translate(5.72298, 9.445436)"><g><path d="M 2.609375 -1.5 C 2.941406 -1.3125 3.179688 -1.097656 3.328125 -0.859375 C 3.484375 -0.628906 3.488281 -0.382812 3.34375 -0.125 L 2.875 0.71875 C 2.84375 0.769531 2.832031 0.816406 2.84375 0.859375 C 2.851562 0.898438 2.878906 0.9375 2.921875 0.96875 L 3.078125 1.046875 L 2.796875 1.53125 C 2.785156 1.53125 2.757812 1.523438 2.71875 1.515625 C 2.675781 1.515625 2.617188 1.5 2.546875 1.46875 C 2.472656 1.445312 2.394531 1.410156 2.3125 1.359375 C 2.144531 1.273438 2.019531 1.175781 1.9375 1.0625 C 1.863281 0.957031 1.835938 0.847656 1.859375 0.734375 C 1.691406 0.765625 1.53125 0.765625 1.375 0.734375 C 1.21875 0.710938 1.050781 0.65625 0.875 0.5625 C 0.351562 0.257812 0.210938 -0.0976562 0.453125 -0.515625 C 0.566406 -0.734375 0.710938 -0.863281 0.890625 -0.90625 C 1.078125 -0.945312 1.289062 -0.925781 1.53125 -0.84375 C 1.769531 -0.757812 2.066406 -0.617188 2.421875 -0.421875 L 2.484375 -0.53125 C 2.523438 -0.613281 2.523438 -0.695312 2.484375 -0.78125 C 2.453125 -0.863281 2.390625 -0.929688 2.296875 -0.984375 C 2.210938 -1.035156 2.128906 -1.0625 2.046875 -1.0625 C 1.972656 -1.0625 1.914062 -1.023438 1.875 -0.953125 L 1.046875 -1.421875 C 1.046875 -1.421875 1.054688 -1.4375 1.078125 -1.46875 C 1.191406 -1.675781 1.382812 -1.785156 1.65625 -1.796875 C 1.925781 -1.816406 2.242188 -1.71875 2.609375 -1.5 Z M 2.203125 -0.03125 C 1.960938 -0.164062 1.769531 -0.234375 1.625 -0.234375 C 1.488281 -0.242188 1.398438 -0.210938 1.359375 -0.140625 C 1.273438 0.00390625 1.320312 0.128906 1.5 0.234375 C 1.613281 0.296875 1.726562 0.320312 1.84375 0.3125 C 1.957031 0.300781 2.039062 0.25 2.09375 0.15625 Z M 2.203125 -0.03125 "/></g></g></g><g fill="#e5a92e" fill-opacity="1"><g transform="translate(8.33403, 10.940463)"><g><path d="M 3.109375 -0.84375 L 2.71875 -0.328125 L 2.28125 -0.65625 L 1.703125 0.125 C 1.628906 0.21875 1.59375 0.296875 1.59375 0.359375 C 1.601562 0.429688 1.648438 0.5 1.734375 0.5625 L 1.9375 0.71875 L 1.59375 1.15625 C 1.519531 1.144531 1.429688 1.109375 1.328125 1.046875 C 1.222656 0.984375 1.128906 0.921875 1.046875 0.859375 C 0.828125 0.691406 0.6875 0.519531 0.625 0.34375 C 0.570312 0.175781 0.617188 -0.00390625 0.765625 -0.203125 L 1.53125 -1.21875 L 1.234375 -1.4375 L 1.625 -1.953125 L 1.953125 -1.71875 L 2.59375 -2.203125 L 3.140625 -1.78125 L 2.671875 -1.171875 Z M 3.109375 -0.84375 "/></g></g></g><g fill="#e5a92e" fill-opacity="1"><g transform="translate(9.911435, 12.070576)"><g><path d="M 2.921875 -0.75 C 3.203125 -0.476562 3.378906 -0.210938 3.453125 0.046875 C 3.535156 0.316406 3.472656 0.554688 3.265625 0.765625 L 2.578125 1.453125 C 2.546875 1.492188 2.523438 1.535156 2.515625 1.578125 C 2.515625 1.617188 2.53125 1.660156 2.5625 1.703125 L 2.6875 1.8125 L 2.28125 2.21875 C 2.269531 2.21875 2.242188 2.207031 2.203125 2.1875 C 2.171875 2.164062 2.125 2.132812 2.0625 2.09375 C 2 2.050781 1.929688 2 1.859375 1.9375 C 1.734375 1.800781 1.644531 1.671875 1.59375 1.546875 C 1.550781 1.421875 1.550781 1.304688 1.59375 1.203125 C 1.4375 1.191406 1.28125 1.148438 1.125 1.078125 C 0.976562 1.015625 0.835938 0.914062 0.703125 0.78125 C 0.265625 0.351562 0.21875 -0.03125 0.5625 -0.375 C 0.726562 -0.550781 0.90625 -0.632812 1.09375 -0.625 C 1.289062 -0.625 1.492188 -0.550781 1.703125 -0.40625 C 1.910156 -0.269531 2.160156 -0.0546875 2.453125 0.234375 L 2.546875 0.140625 C 2.609375 0.078125 2.628906 0.00390625 2.609375 -0.078125 C 2.597656 -0.171875 2.554688 -0.253906 2.484375 -0.328125 C 2.410156 -0.398438 2.332031 -0.445312 2.25 -0.46875 C 2.175781 -0.488281 2.113281 -0.472656 2.0625 -0.421875 L 1.390625 -1.09375 C 1.390625 -1.09375 1.40625 -1.101562 1.4375 -1.125 C 1.601562 -1.300781 1.816406 -1.359375 2.078125 -1.296875 C 2.335938 -1.234375 2.617188 -1.050781 2.921875 -0.75 Z M 2.140625 0.5625 C 1.941406 0.363281 1.769531 0.238281 1.625 0.1875 C 1.488281 0.144531 1.390625 0.15625 1.328125 0.21875 C 1.210938 0.34375 1.234375 0.476562 1.390625 0.625 C 1.472656 0.707031 1.570312 0.757812 1.6875 0.78125 C 1.8125 0.8125 1.910156 0.785156 1.984375 0.703125 Z M 2.140625 0.5625 "/></g></g></g><g fill="#e5a92e" fill-opacity="1"><g transform="translate(12.038201, 14.224638)"><g><path d="M 0.84375 -0.4375 L 1.4375 -0.921875 L 2.21875 0.046875 L 1.625 0.53125 Z M 0.84375 -0.4375 "/></g></g></g><g fill="#e5a92e" fill-opacity="1"><g transform="translate(12.97066, 15.304429)"><g><path d="M 3.046875 0.015625 C 3.273438 0.390625 3.363281 0.742188 3.3125 1.078125 C 3.257812 1.410156 3.046875 1.691406 2.671875 1.921875 C 2.304688 2.140625 1.957031 2.203125 1.625 2.109375 C 1.300781 2.015625 1.023438 1.78125 0.796875 1.40625 C 0.554688 1.019531 0.460938 0.660156 0.515625 0.328125 C 0.578125 -0.00390625 0.796875 -0.285156 1.171875 -0.515625 C 1.546875 -0.742188 1.890625 -0.804688 2.203125 -0.703125 C 2.523438 -0.609375 2.804688 -0.367188 3.046875 0.015625 Z M 2.515625 0.359375 C 2.347656 0.078125 2.109375 0.03125 1.796875 0.21875 L 1.546875 0.359375 C 1.242188 0.546875 1.175781 0.78125 1.34375 1.0625 C 1.507812 1.320312 1.742188 1.359375 2.046875 1.171875 L 2.296875 1.03125 C 2.609375 0.84375 2.679688 0.617188 2.515625 0.359375 Z M 2.515625 0.359375 "/></g></g></g><g fill="#e5a92e" fill-opacity="1"><g transform="translate(14.538034, 17.841158)"><g><path d="M 0.375 0.890625 L 2.34375 -0.984375 L 2.75 -0.03125 L 1.453125 1.015625 L 1.46875 1.03125 L 3.125 0.859375 L 3.484375 1.71875 L 0.765625 1.8125 Z M 0.375 0.890625 "/></g></g></g><g fill="#e5a92e" fill-opacity="1"><g transform="translate(15.614208, 20.332589)"><g><path d="M 2.90625 0.9375 C 3.019531 1.382812 3 1.75 2.84375 2.03125 C 2.6875 2.320312 2.394531 2.519531 1.96875 2.625 L 1.8125 2.671875 L 1.34375 0.828125 C 1.15625 0.867188 1.023438 0.941406 0.953125 1.046875 C 0.890625 1.148438 0.878906 1.289062 0.921875 1.46875 C 0.960938 1.613281 1.023438 1.710938 1.109375 1.765625 C 1.203125 1.828125 1.300781 1.847656 1.40625 1.828125 L 1.625 2.71875 C 1.332031 2.789062 1.070312 2.734375 0.84375 2.546875 C 0.613281 2.367188 0.445312 2.0625 0.34375 1.625 C 0.226562 1.164062 0.242188 0.785156 0.390625 0.484375 C 0.546875 0.179688 0.84375 -0.0234375 1.28125 -0.140625 C 1.695312 -0.242188 2.039062 -0.195312 2.3125 0 C 2.59375 0.1875 2.789062 0.5 2.90625 0.9375 Z M 2.3125 1.109375 C 2.238281 0.816406 2.066406 0.691406 1.796875 0.734375 L 2.015625 1.625 C 2.140625 1.59375 2.226562 1.53125 2.28125 1.4375 C 2.34375 1.351562 2.351562 1.242188 2.3125 1.109375 Z M 2.3125 1.109375 "/></g></g></g><g fill="#e5a92e" fill-opacity="1"><g transform="translate(16.31934, 23.257145)"><g><path d="M 2.796875 1.53125 C 2.804688 1.601562 2.800781 1.671875 2.78125 1.734375 C 2.769531 1.796875 2.765625 1.828125 2.765625 1.828125 L 1.953125 1.921875 L 1.921875 1.609375 C 1.898438 1.410156 1.832031 1.273438 1.71875 1.203125 C 1.613281 1.128906 1.460938 1.101562 1.265625 1.125 L 0.140625 1.25 L 0.03125 0.28125 L 2.5625 0 L 2.65625 0.796875 L 2.265625 0.90625 C 2.421875 0.9375 2.539062 1.007812 2.625 1.125 C 2.71875 1.238281 2.773438 1.375 2.796875 1.53125 Z M 2.796875 1.53125 "/></g></g></g><g fill="#e5a92e" fill-opacity="1"><g transform="translate(16.572781, 25.189649)"><g><path d="M -0.015625 0.96875 L 2.546875 0.046875 L 2.53125 1.078125 L 0.921875 1.515625 L 0.921875 1.546875 L 2.515625 2.046875 L 2.5 2.984375 L -0.03125 1.96875 Z M -0.015625 0.96875 "/></g></g></g><g fill="#e5a92e" fill-opacity="1"><g transform="translate(16.499707, 27.956846)"><g><path d="M 2.765625 0.6875 L 3.40625 0.78125 L 3.28125 1.71875 L 2.640625 1.625 Z M -0.046875 0.328125 L 2.484375 0.65625 L 2.359375 1.59375 L -0.171875 1.265625 Z M -0.046875 0.328125 "/></g></g></g><g fill="#e5a92e" fill-opacity="1"><g transform="translate(16.375516, 29.378068)"><g><path d="M 2.125 2.203125 C 2.007812 2.640625 1.8125 2.953125 1.53125 3.140625 C 1.257812 3.328125 0.90625 3.363281 0.46875 3.25 L 0.328125 3.21875 L 0.796875 1.375 C 0.609375 1.320312 0.457031 1.320312 0.34375 1.375 C 0.238281 1.4375 0.164062 1.554688 0.125 1.734375 C 0.0820312 1.878906 0.0859375 2 0.140625 2.09375 C 0.191406 2.1875 0.269531 2.25 0.375 2.28125 L 0.140625 3.171875 C -0.148438 3.085938 -0.351562 2.910156 -0.46875 2.640625 C -0.582031 2.367188 -0.582031 2.019531 -0.46875 1.59375 C -0.351562 1.132812 -0.160156 0.804688 0.109375 0.609375 C 0.390625 0.410156 0.742188 0.367188 1.171875 0.484375 C 1.597656 0.585938 1.890625 0.789062 2.046875 1.09375 C 2.203125 1.394531 2.226562 1.765625 2.125 2.203125 Z M 1.515625 2.078125 C 1.585938 1.785156 1.492188 1.59375 1.234375 1.5 L 1 2.390625 C 1.125 2.421875 1.234375 2.40625 1.328125 2.34375 C 1.421875 2.289062 1.484375 2.203125 1.515625 2.078125 Z M 1.515625 2.078125 "/></g></g></g><g fill="#e5a92e" fill-opacity="1"><g transform="translate(15.738134, 32.244499)"><g><path d="M -1.140625 2.421875 L 0.296875 2.671875 L 0.3125 2.65625 L -0.796875 1.6875 L -0.390625 0.828125 L 2.296875 1.09375 L 1.859375 2.03125 L 0.34375 1.734375 L 0.328125 1.765625 L 1.5 2.765625 L 1.09375 3.625 L -0.40625 3.328125 L -0.421875 3.359375 L 0.75 4.359375 L 0.34375 5.203125 L -1.546875 3.265625 Z M -1.140625 2.421875 "/></g></g></g></g></g></svg>